<svg width="22" height="19" viewBox="0 0 22 19" fill="none" xmlns="http://www.w3.org/2000/svg">
<path d="M18.9126 3.50233H4.2028C3.81768 3.50233 3.50233 3.18698 3.50233 2.80186C3.50233 2.41674 3.81768 2.1014 4.2028 2.1014H18.2121C18.2121 0.945697 17.2664 0 16.1107 0H3.50233C1.56921 0 0 1.56921 0 3.50233V16.1107C0 17.2664 0.945697 18.2121 2.1014 18.2121H18.9126C20.0683 18.2121 21.014 17.2664 21.014 16.1107V5.60373C21.014 4.44803 20.0683 3.50233 18.9126 3.50233ZM16.8112 12.2582C16.0385 12.2582 15.4102 11.6299 15.4102 10.8572C15.4102 10.0846 16.0385 9.45629 16.8112 9.45629C17.5838 9.45629 18.2121 10.0846 18.2121 10.8572C18.2121 11.6299 17.5838 12.2582 16.8112 12.2582Z" fill="white"/>
</svg>
