<svg width="292" height="56" viewBox="0 0 292 56" fill="none" xmlns="http://www.w3.org/2000/svg">
<path d="M83.5967 48.3918V13.1315H88.6339V44.2613H113.115V48.3918H83.5967Z" fill="url(#paint0_linear_477_20)"/>
<path d="M146.038 35.9499V36.5544H117.578C117.914 39.5095 119.207 41.7595 121.457 43.3042C123.707 44.8489 126.645 45.6213 130.272 45.6213C132.824 45.6213 135.007 45.2351 136.82 44.4628C138.667 43.6904 140.011 42.6494 140.85 41.3397L145.434 41.5412C144.494 43.8919 142.714 45.722 140.095 47.0317C137.509 48.3414 134.235 48.9962 130.272 48.9962C124.866 48.9962 120.601 47.8377 117.478 45.5206C114.355 43.1699 112.793 39.7278 112.793 35.1943C112.793 30.6945 114.338 27.2692 117.427 24.9185C120.55 22.5678 124.664 21.3925 129.768 21.3925C135.007 21.3925 139.02 22.6014 141.807 25.0193C144.628 27.4035 146.038 31.0471 146.038 35.9499ZM129.768 24.7674C126.41 24.7674 123.64 25.5062 121.457 26.9838C119.308 28.4613 118.032 30.6273 117.629 33.4817H141.303C141.169 30.7952 140.061 28.6796 137.979 27.1349C135.931 25.5566 133.194 24.7674 129.768 24.7674Z" fill="url(#paint1_linear_477_20)"/>
<path d="M167.65 21.3925C171.714 21.3925 174.837 22.3831 177.019 24.3644C179.236 26.3121 180.344 29.2505 180.344 33.1795V48.3918H175.609V34.6906C175.609 28.4445 172.469 25.3215 166.19 25.3215C162.496 25.3215 159.624 26.3289 157.576 28.3438C155.527 30.3587 154.503 33.0955 154.503 36.5544V48.3918H149.718V21.9969H154.1V28.9986C155.175 26.5808 156.871 24.717 159.188 23.4074C161.505 22.0641 164.326 21.3925 167.65 21.3925Z" fill="url(#paint2_linear_477_20)"/>
<path d="M212.266 11.3181H217V48.3918H212.669V42.1457C211.527 44.362 209.781 46.0579 207.43 47.2332C205.113 48.4085 202.393 48.9962 199.27 48.9962C194.635 48.9962 190.891 47.7705 188.037 45.3191C185.216 42.8676 183.805 39.4927 183.805 35.1943C183.805 30.896 185.216 27.521 188.037 25.0696C190.891 22.6182 194.635 21.3925 199.27 21.3925C205.482 21.3925 209.814 23.4409 212.266 27.5378V11.3181ZM200.529 45.3191C204.189 45.3191 207.094 44.3956 209.243 42.5486C211.392 40.7017 212.467 38.2502 212.467 35.1943C212.467 32.1385 211.392 29.687 209.243 27.8401C207.094 25.9931 204.189 25.0696 200.529 25.0696C196.835 25.0696 193.913 25.9931 191.764 27.8401C189.615 29.687 188.54 32.1385 188.54 35.1943C188.54 38.2502 189.615 40.7017 191.764 42.5486C193.913 44.3956 196.835 45.3191 200.529 45.3191Z" fill="url(#paint3_linear_477_20)"/>
<path d="M238.316 21.3925C239.457 21.3925 240.817 21.51 242.396 21.7451V26.0267C240.582 25.8252 239.054 25.7245 237.812 25.7245C230.861 25.7245 227.385 29.8214 227.385 38.0152V48.3918H222.6L222.65 21.9969H227.032V28.9986C227.973 26.5472 229.4 24.6667 231.314 23.357C233.262 22.0473 235.596 21.3925 238.316 21.3925Z" fill="url(#paint4_linear_477_20)"/>
<path d="M259.191 21.3925C263.926 21.3925 267.502 22.2992 269.92 24.1126C272.371 25.8924 273.597 28.4949 273.597 31.9202V48.3918H269.215V42.3471C268.039 44.4292 266.192 46.0579 263.674 47.2332C261.189 48.4085 258.183 48.9962 254.657 48.9962C250.628 48.9962 247.622 48.3078 245.641 46.931C243.693 45.5206 242.719 43.6904 242.719 41.4404C242.719 38.989 243.895 37.1253 246.245 35.8492C248.596 34.5731 252.189 33.7672 257.025 33.4313L268.812 32.6758V30.9631C268.812 29.1833 268.006 27.7057 266.394 26.5304C264.782 25.3551 262.381 24.7674 259.191 24.7674C256.471 24.7674 254.221 25.1872 252.441 26.0267C250.661 26.8662 249.57 28.0919 249.167 29.7038H244.633C244.969 26.883 246.447 24.801 249.066 23.4577C251.719 22.0809 255.094 21.3925 259.191 21.3925ZM255.816 45.6213C259.879 45.6213 263.053 44.8321 265.336 43.2538C267.653 41.6419 268.812 39.5767 268.812 37.0581V35.6477L257.579 36.3529C250.829 36.823 247.454 38.4517 247.454 41.239C247.454 42.5486 248.143 43.6064 249.519 44.4124C250.93 45.2183 253.029 45.6213 255.816 45.6213Z" fill="url(#paint5_linear_477_20)"/>
<path d="M287.872 13.1315H291.65V48.3918H286.865V18.3198L276.74 23.6592V19.025L287.872 13.1315Z" fill="url(#paint6_linear_477_20)"/>
<path d="M15.4994 55.557C7.44867 51.2472 1.58579 43.2804 0.162704 33.8611L15.4994 24.5958V55.557Z" fill="url(#paint7_linear_477_20)"/>
<path d="M29.2353 0C45.38 0 58.6422 13.2621 58.6422 29.4068C58.6421 38.0825 54.902 45.8911 48.9763 51.3067V10.3993H25.0263L0 26.2604C1.5883 11.5744 14.153 8.43484e-05 29.2353 0Z" fill="url(#paint8_linear_477_20)"/>
<defs>
<linearGradient id="paint0_linear_477_20" x1="177.09" y1="16.3674" x2="175.319" y2="51.0096" gradientUnits="userSpaceOnUse">
<stop stop-color="white"/>
<stop offset="1" stop-color="#999999"/>
</linearGradient>
<linearGradient id="paint1_linear_477_20" x1="177.09" y1="16.3674" x2="175.319" y2="51.0096" gradientUnits="userSpaceOnUse">
<stop stop-color="white"/>
<stop offset="1" stop-color="#999999"/>
</linearGradient>
<linearGradient id="paint2_linear_477_20" x1="177.09" y1="16.3674" x2="175.319" y2="51.0096" gradientUnits="userSpaceOnUse">
<stop stop-color="white"/>
<stop offset="1" stop-color="#999999"/>
</linearGradient>
<linearGradient id="paint3_linear_477_20" x1="177.09" y1="16.3674" x2="175.319" y2="51.0096" gradientUnits="userSpaceOnUse">
<stop stop-color="white"/>
<stop offset="1" stop-color="#999999"/>
</linearGradient>
<linearGradient id="paint4_linear_477_20" x1="177.09" y1="16.3674" x2="175.319" y2="51.0096" gradientUnits="userSpaceOnUse">
<stop stop-color="white"/>
<stop offset="1" stop-color="#999999"/>
</linearGradient>
<linearGradient id="paint5_linear_477_20" x1="177.09" y1="16.3674" x2="175.319" y2="51.0096" gradientUnits="userSpaceOnUse">
<stop stop-color="white"/>
<stop offset="1" stop-color="#999999"/>
</linearGradient>
<linearGradient id="paint6_linear_477_20" x1="177.09" y1="16.3674" x2="175.319" y2="51.0096" gradientUnits="userSpaceOnUse">
<stop stop-color="white"/>
<stop offset="1" stop-color="#999999"/>
</linearGradient>
<linearGradient id="paint7_linear_477_20" x1="15.7604" y1="2.02713" x2="51.5562" y2="52.2834" gradientUnits="userSpaceOnUse">
<stop stop-color="#86FFCC"/>
<stop offset="1" stop-color="#114730"/>
</linearGradient>
<linearGradient id="paint8_linear_477_20" x1="15.7604" y1="2.02713" x2="51.5562" y2="52.2834" gradientUnits="userSpaceOnUse">
<stop stop-color="#86FFCC"/>
<stop offset="1" stop-color="#114730"/>
</linearGradient>
</defs>
</svg>
